<svg width="58" height="58" viewBox="0 0 58 58" fill="none" xmlns="http://www.w3.org/2000/svg">
<g clip-path="url(#clip0_10_2)">
<g filter="url(#filter0_d_10_2)">
<path fill-rule="evenodd" clip-rule="evenodd" d="M22.484 51.2773H53.3173V45.1107C53.3173 40.572 49.6347 36.8893 45.096 36.8893H32.7627C28.224 36.8893 24.54 40.572 24.54 45.1107V51.2773H22.484V45.1107C22.484 39.4373 27.0893 34.8333 32.7627 34.8333H45.096C50.7693 34.8333 55.3733 39.4373 55.3733 45.1107V53.3333H22.484V51.2773ZM38.9293 16.3333C43.468 16.3333 47.1507 20.0173 47.1507 24.556C47.1507 29.0947 43.468 32.7773 38.9293 32.7773C34.3907 32.7773 30.7067 29.0947 30.7067 24.556C30.7067 20.0173 34.3907 16.3333 38.9293 16.3333ZM38.9293 18.3893C42.3333 18.3893 45.096 21.152 45.096 24.556C45.096 27.96 42.3333 30.7227 38.9293 30.7227C35.5253 30.7227 32.7627 27.96 32.7627 24.556C32.7627 21.152 35.5253 18.3893 38.9293 18.3893Z" fill="#AA01AD"/>
<path d="M23.6893 14.2467L16.3493 6.90667V4L27.624 15.2747L16.3493 26.552V23.6427L23.6893 16.3027H1.96V14.2467H23.6893Z" fill="#AA01AD"/>
</g>
</g>
<defs>
<filter id="filter0_d_10_2" x="-2.04" y="2" width="61.4133" height="57.3333" filterUnits="userSpaceOnUse" color-interpolation-filters="sRGB">
<feFlood flood-opacity="0" result="BackgroundImageFix"/>
<feColorMatrix in="SourceAlpha" type="matrix" values="0 0 0 0 0 0 0 0 0 0 0 0 0 0 0 0 0 0 127 0" result="hardAlpha"/>
<feOffset dy="2"/>
<feGaussianBlur stdDeviation="2"/>
<feComposite in2="hardAlpha" operator="out"/>
<feColorMatrix type="matrix" values="0 0 0 0 0.65 0 0 0 0 0.00541667 0 0 0 0 0.585542 0 0 0 0.5 0"/>
<feBlend mode="normal" in2="BackgroundImageFix" result="effect1_dropShadow_10_2"/>
<feBlend mode="normal" in="SourceGraphic" in2="effect1_dropShadow_10_2" result="shape"/>
</filter>
<clipPath id="clip0_10_2">
<rect width="57.3333" height="57.3333" fill="white"/>
</clipPath>
</defs>
</svg>
