<svg width="46" height="46" viewBox="0 0 46 46" fill="none" xmlns="http://www.w3.org/2000/svg">
<g clip-path="url(#clip0_10_6)">
<g filter="url(#filter0_d_10_6)">
<path d="M12.1453 22.6667C12.1453 17.0213 16.86 12.4373 22.6667 12.4373C28.4733 12.4373 33.188 17.0213 33.188 22.6667C33.188 28.312 28.4733 32.896 22.6667 32.896C16.86 32.896 12.1453 28.312 12.1453 22.6667Z" stroke="#AA01AD" stroke-width="2.66667" stroke-miterlimit="3" stroke-linecap="square" shape-rendering="crispEdges"/>
</g>
<g filter="url(#filter1_d_10_6)">
<path fill-rule="evenodd" clip-rule="evenodd" d="M13.172 6.06533C16.088 4.544 19.3507 3.74933 22.6667 3.74933C26.196 3.74933 29.668 4.65066 32.7293 6.372C33.1827 6.628 33.7667 6.476 34.0307 6.032C34.2947 5.588 34.14 5.01866 33.6853 4.76266C30.3373 2.87466 26.5307 1.88933 22.6667 1.88933C18.8827 1.88933 15.1653 2.84 11.868 4.644L12.34 1.932C12.4427 1.34133 12.032 0.781331 11.4253 0.681331C10.8173 0.582664 10.2413 0.981331 10.1387 1.57066L9.47467 5.43066C9.26933 6.62533 10.0733 7.75466 11.2707 7.95066L15.3013 8.61333C15.9093 8.71333 16.4853 8.31466 16.588 7.724C16.6907 7.13333 16.28 6.57333 15.6733 6.47333L13.172 6.06533ZM5.316 33.1173C5.57867 33.5587 5.42533 34.1267 4.97067 34.3867C4.51733 34.6453 3.92933 34.4973 3.66 34.056C1.7 30.7827 0.666666 27.0627 0.666666 23.2773C0.666666 19.8747 1.49867 16.5267 3.096 13.4947C3.33867 13.0387 3.91733 12.8587 4.388 13.0947C4.85733 13.3307 5.04133 13.8933 4.79867 14.3507C3.336 17.112 2.58 20.172 2.58 23.2773C2.58 26.7373 3.51733 30.132 5.316 33.1173ZM32.7867 40.1467C33.2413 39.8907 33.8253 40.04 34.092 40.4813C34.3587 40.9227 34.2067 41.4947 33.7533 41.756C30.3853 43.6627 26.56 44.6667 22.6667 44.6667C18.908 44.6667 15.196 43.728 11.916 41.9413C11.456 41.6907 11.2933 41.124 11.552 40.6773C11.8107 40.2307 12.3933 40.068 12.8533 40.3147C15.8467 41.9507 19.2333 42.8067 22.6667 42.8067C26.2253 42.8067 29.716 41.896 32.7867 40.1467ZM40.7733 14.8253C40.5467 14.3627 40.748 13.808 41.2227 13.588C41.6987 13.3667 42.272 13.5627 42.5053 14.0253C43.9307 16.908 44.6667 20.0693 44.6667 23.2773C44.6667 26.9227 43.7107 30.504 41.8827 33.6933C41.624 34.14 41.0413 34.3 40.5827 34.0507C40.1227 33.8027 39.956 33.2333 40.2093 32.7813C41.8827 29.88 42.7533 26.6067 42.7533 23.2773C42.7533 20.348 42.084 17.4653 40.7733 14.8253ZM37.4933 9.79333C37.4933 9.28 37.9213 8.864 38.4493 8.864C38.9773 8.864 39.4053 9.28 39.4053 9.79333C39.4053 10.3067 38.9773 10.724 38.4493 10.724C37.9213 10.724 37.4933 10.3067 37.4933 9.79333ZM36.536 37.692C36.536 37.1787 36.9653 36.7627 37.4933 36.7627C38.0213 36.7627 38.4493 37.1787 38.4493 37.692C38.4493 38.2053 38.0213 38.6227 37.4933 38.6227C36.9653 38.6227 36.536 38.2053 36.536 37.692ZM5.928 37.692C5.928 37.1787 6.356 36.7627 6.884 36.7627C7.412 36.7627 7.84 37.1787 7.84 37.692C7.84 38.2053 7.412 38.6227 6.884 38.6227C6.356 38.6227 5.928 38.2053 5.928 37.692Z" fill="#AA01AD"/>
</g>
</g>
<defs>
<filter id="filter0_d_10_6" x="6.812" y="9.104" width="31.7093" height="31.1253" filterUnits="userSpaceOnUse" color-interpolation-filters="sRGB">
<feFlood flood-opacity="0" result="BackgroundImageFix"/>
<feColorMatrix in="SourceAlpha" type="matrix" values="0 0 0 0 0 0 0 0 0 0 0 0 0 0 0 0 0 0 127 0" result="hardAlpha"/>
<feOffset dy="2"/>
<feGaussianBlur stdDeviation="2"/>
<feComposite in2="hardAlpha" operator="out"/>
<feColorMatrix type="matrix" values="0 0 0 0 0.65 0 0 0 0 0.00541667 0 0 0 0 0.585542 0 0 0 0.5 0"/>
<feBlend mode="normal" in2="BackgroundImageFix" result="effect1_dropShadow_10_6"/>
<feBlend mode="normal" in="SourceGraphic" in2="effect1_dropShadow_10_6" result="shape"/>
</filter>
<filter id="filter1_d_10_6" x="-3.33333" y="-1.33366" width="52" height="52.0003" filterUnits="userSpaceOnUse" color-interpolation-filters="sRGB">
<feFlood flood-opacity="0" result="BackgroundImageFix"/>
<feColorMatrix in="SourceAlpha" type="matrix" values="0 0 0 0 0 0 0 0 0 0 0 0 0 0 0 0 0 0 127 0" result="hardAlpha"/>
<feOffset dy="2"/>
<feGaussianBlur stdDeviation="2"/>
<feComposite in2="hardAlpha" operator="out"/>
<feColorMatrix type="matrix" values="0 0 0 0 0.58418 0 0 0 0 0.0292188 0 0 0 0 0.779167 0 0 0 0.75 0"/>
<feBlend mode="normal" in2="BackgroundImageFix" result="effect1_dropShadow_10_6"/>
<feBlend mode="normal" in="SourceGraphic" in2="effect1_dropShadow_10_6" result="shape"/>
</filter>
<clipPath id="clip0_10_6">
<rect width="45.3333" height="45.3333" fill="white"/>
</clipPath>
</defs>
</svg>
