<svg width="46" height="46" viewBox="0 0 46 46" fill="none" xmlns="http://www.w3.org/2000/svg">
<g clip-path="url(#clip0_10_9)">
<g filter="url(#filter0_d_10_9)">
<path fill-rule="evenodd" clip-rule="evenodd" d="M39.368 11.504C39.072 11.0653 39.188 10.4707 39.6253 10.1747C40.064 9.87867 40.66 9.99467 40.956 10.4333C43.376 14.0573 44.6667 18.3147 44.6667 22.6667C44.6667 28.5013 42.352 34.0973 38.22 38.22C34.0973 42.352 28.5013 44.6667 22.6667 44.6667C16.832 44.6667 11.236 42.352 7.11333 38.22C2.98133 34.0973 0.666664 28.5013 0.666664 22.6667C0.666664 16.832 2.98133 11.236 7.11333 7.11334C11.236 2.99067 16.832 0.666672 22.6667 0.666672C25.9373 0.666672 29.18 1.39334 32.136 2.80934C32.612 3.03601 32.8133 3.60667 32.5853 4.08134C32.3587 4.55601 31.7893 4.75867 31.3133 4.53067C28.616 3.24934 25.66 2.58001 22.6667 2.58001C17.3387 2.58001 12.2307 4.69334 8.46266 8.46267C4.69333 12.2307 2.58 17.3387 2.58 22.6667C2.58 27.9947 4.69333 33.1027 8.46266 36.8707C12.2307 40.64 17.3387 42.7533 22.6667 42.7533C27.9947 42.7533 33.1027 40.64 36.8707 36.8707C40.64 33.1027 42.7533 27.9947 42.7533 22.6667C42.7533 18.688 41.5773 14.804 39.368 11.504ZM22.864 8.71067C23.416 8.71067 23.864 9.15867 23.864 9.71067V23.5973C23.864 24.1493 23.416 24.5973 22.864 24.5973C22.312 24.5973 21.864 24.1493 21.864 23.5973V9.71067C21.864 9.15867 22.312 8.71067 22.864 8.71067ZM27.1667 15.2813C26.676 15.0333 26.4787 14.4333 26.7267 13.9413C26.9747 13.4507 27.576 13.2533 28.0667 13.5013C30.0467 14.5013 31.716 16.032 32.876 17.9213C34.0467 19.812 34.6667 21.9813 34.6667 24.2013C34.6667 24.752 34.6267 25.292 34.5573 25.832C34.1667 28.7013 32.7467 31.3413 30.5667 33.252C28.376 35.1613 25.5773 36.212 22.676 36.2213C22.136 36.2213 21.5867 36.1813 21.0573 36.112C18.176 35.7213 15.536 34.3013 13.6267 32.1213C11.716 29.932 10.6667 27.132 10.6667 24.232C10.6667 23.6813 10.696 23.1413 10.776 22.6013C11.3373 18.432 14.0573 14.8613 17.9173 13.192C18.424 12.976 19.0133 13.212 19.232 13.716C19.4493 14.2213 19.2187 14.8107 18.7173 15.032C15.4973 16.4213 13.2267 19.4013 12.7573 22.872C12.696 23.3213 12.6667 23.772 12.6667 24.232C12.6667 26.6413 13.5467 28.9813 15.1373 30.8013C16.7267 32.6213 18.9267 33.8013 21.316 34.1213C21.7667 34.1813 22.2267 34.2213 22.676 34.2213C25.0973 34.212 27.4267 33.3413 29.2467 31.7413C31.0667 30.152 32.2467 27.952 32.5773 25.5613C32.636 25.112 32.6667 24.6613 32.6667 24.2013C32.6667 20.4413 30.5267 16.9813 27.1667 15.2813Z" fill="#AA01AD"/>
</g>
</g>
<defs>
<filter id="filter0_d_10_9" x="-3.33334" y="-1.33333" width="52" height="52" filterUnits="userSpaceOnUse" color-interpolation-filters="sRGB">
<feFlood flood-opacity="0" result="BackgroundImageFix"/>
<feColorMatrix in="SourceAlpha" type="matrix" values="0 0 0 0 0 0 0 0 0 0 0 0 0 0 0 0 0 0 127 0" result="hardAlpha"/>
<feOffset dy="2"/>
<feGaussianBlur stdDeviation="2"/>
<feComposite in2="hardAlpha" operator="out"/>
<feColorMatrix type="matrix" values="0 0 0 0 0.65 0 0 0 0 0.00541667 0 0 0 0 0.585542 0 0 0 0.5 0"/>
<feBlend mode="normal" in2="BackgroundImageFix" result="effect1_dropShadow_10_9"/>
<feBlend mode="normal" in="SourceGraphic" in2="effect1_dropShadow_10_9" result="shape"/>
</filter>
<clipPath id="clip0_10_9">
<rect width="45.3333" height="45.3333" fill="white"/>
</clipPath>
</defs>
</svg>
