<svg width="46" height="46" viewBox="0 0 46 46" fill="none" xmlns="http://www.w3.org/2000/svg">
<g clip-path="url(#clip0_10_11)">
<g filter="url(#filter0_d_10_11)">
<path fill-rule="evenodd" clip-rule="evenodd" d="M39.368 11.504C39.072 11.0653 39.188 10.4707 39.6253 10.1747C40.064 9.87867 40.66 9.99467 40.956 10.4333C43.376 14.0573 44.6667 18.3147 44.6667 22.6667C44.6667 28.5013 42.352 34.0973 38.22 38.22C34.0973 42.352 28.5013 44.6667 22.6667 44.6667C16.832 44.6667 11.236 42.352 7.11333 38.22C2.98133 34.0973 0.666666 28.5013 0.666666 22.6667C0.666666 16.832 2.98133 11.236 7.11333 7.11334C11.236 2.99067 16.832 0.666672 22.6667 0.666672C25.9373 0.666672 29.18 1.39334 32.136 2.80934C32.612 3.03601 32.8133 3.60667 32.5853 4.08134C32.3587 4.55601 31.7893 4.75867 31.3133 4.53067C28.616 3.24934 25.66 2.58001 22.6667 2.58001C17.3387 2.58001 12.2307 4.69334 8.46267 8.46267C4.69333 12.2307 2.58 17.3387 2.58 22.6667C2.58 27.9947 4.69333 33.1027 8.46267 36.8707C12.2307 40.64 17.3387 42.7533 22.6667 42.7533C27.9947 42.7533 33.1027 40.64 36.8707 36.8707C40.64 33.1027 42.7533 27.9947 42.7533 22.6667C42.7533 18.688 41.5773 14.804 39.368 11.504ZM25.616 33.2667C26.1467 33.1173 26.696 33.4293 26.8413 33.9613C26.988 34.4947 26.676 35.048 26.1467 35.196C25.0173 35.5067 23.8467 35.6667 22.6667 35.6667C19.2173 35.6667 15.9067 34.2973 13.476 31.856C11.0373 29.4267 9.66667 26.1173 9.66667 22.6667C9.66667 20.0867 10.436 17.556 11.876 15.4067C12.1853 14.948 12.808 14.828 13.2667 15.1373C13.7253 15.4453 13.8453 16.068 13.5373 16.5267C12.3173 18.3467 11.6667 20.476 11.6667 22.6667C11.6667 25.5867 12.8267 28.3867 14.8867 30.4467C16.9467 32.5067 19.7467 33.6667 22.6667 33.6667C23.6667 33.6667 24.6573 33.536 25.616 33.2667ZM20.7373 11.8373C20.1907 11.9307 19.6707 11.5653 19.576 11.0213C19.4827 10.4787 19.8453 9.96001 20.3867 9.86667C21.1373 9.73601 21.9067 9.66667 22.6667 9.66667C26.116 9.66667 29.4267 11.0373 31.8573 13.476C34.2973 15.9067 35.6667 19.216 35.6667 22.6667C35.6667 25.2867 34.8773 27.8467 33.3867 30.016C33.0773 30.4693 32.4573 30.584 32.0013 30.272C31.5467 29.96 31.432 29.3347 31.7467 28.876C32.9973 27.056 33.6667 24.8867 33.6667 22.6667C33.6667 19.7467 32.5067 16.9467 30.4467 14.8867C28.3867 12.8267 25.5867 11.6667 22.6667 11.6667C22.0173 11.6667 21.3773 11.7267 20.7373 11.8373ZM20.5613 17.6667C21.1133 17.6667 21.5613 18.1147 21.5613 18.6667V26.6667C21.5613 27.2187 21.1133 27.6667 20.5613 27.6667C20.0093 27.6667 19.5613 27.2187 19.5613 26.6667V18.6667C19.5613 18.1147 20.0093 17.6667 20.5613 17.6667ZM24.88 17.6667C25.432 17.6667 25.88 18.1147 25.88 18.6667V26.6667C25.88 27.2187 25.432 27.6667 24.88 27.6667C24.328 27.6667 23.88 27.2187 23.88 26.6667V18.6667C23.88 18.1147 24.328 17.6667 24.88 17.6667Z" fill="#AA01AD"/>
</g>
</g>
<defs>
<filter id="filter0_d_10_11" x="-3.33333" y="-1.33333" width="52" height="52" filterUnits="userSpaceOnUse" color-interpolation-filters="sRGB">
<feFlood flood-opacity="0" result="BackgroundImageFix"/>
<feColorMatrix in="SourceAlpha" type="matrix" values="0 0 0 0 0 0 0 0 0 0 0 0 0 0 0 0 0 0 127 0" result="hardAlpha"/>
<feOffset dy="2"/>
<feGaussianBlur stdDeviation="2"/>
<feComposite in2="hardAlpha" operator="out"/>
<feColorMatrix type="matrix" values="0 0 0 0 0.65 0 0 0 0 0.00541667 0 0 0 0 0.585542 0 0 0 0.5 0"/>
<feBlend mode="normal" in2="BackgroundImageFix" result="effect1_dropShadow_10_11"/>
<feBlend mode="normal" in="SourceGraphic" in2="effect1_dropShadow_10_11" result="shape"/>
</filter>
<clipPath id="clip0_10_11">
<rect width="45.3333" height="45.3333" fill="white"/>
</clipPath>
</defs>
</svg>
